<mxfile host="app.diagrams.net" modified="2023-11-13T14:11:11.869Z" agent="Mozilla/5.0 (Windows NT 10.0; Win64; x64) AppleWebKit/537.36 (KHTML, like Gecko) Chrome/116.0.5845.837 YaBrowser/23.9.4.837 Yowser/2.5 Safari/537.36" etag="TwuTJdXxf3OrrL4G9uw4" version="22.1.0" type="github">
  <diagram name="Page-1" id="e7e014a7-5840-1c2e-5031-d8a46d1fe8dd">
    <mxGraphModel dx="2485" dy="930" grid="1" gridSize="10" guides="1" tooltips="1" connect="1" arrows="1" fold="1" page="1" pageScale="1" pageWidth="1169" pageHeight="826" background="none" math="0" shadow="0">
      <root>
        <mxCell id="0" />
        <mxCell id="1" parent="0" />
        <mxCell id="65lMB2ntxEYV6htzTdzf-68" value="&lt;p style=&quot;margin:0px;margin-top:4px;text-align:center;&quot;&gt;&lt;b&gt;Class&lt;/b&gt;&lt;/p&gt;&lt;hr size=&quot;1&quot;/&gt;&lt;div style=&quot;height:2px;&quot;&gt;&lt;/div&gt;" style="verticalAlign=top;align=left;overflow=fill;fontSize=12;fontFamily=Helvetica;html=1;whiteSpace=wrap;" vertex="1" parent="1">
          <mxGeometry x="-199.5" y="300" width="650" height="140" as="geometry" />
        </mxCell>
        <mxCell id="65lMB2ntxEYV6htzTdzf-98" style="edgeStyle=orthogonalEdgeStyle;rounded=0;orthogonalLoop=1;jettySize=auto;html=1;exitX=1;exitY=0.5;exitDx=0;exitDy=0;entryX=0;entryY=0.5;entryDx=0;entryDy=0;" edge="1" parent="1" target="65lMB2ntxEYV6htzTdzf-96">
          <mxGeometry relative="1" as="geometry">
            <mxPoint x="-544" y="495" as="sourcePoint" />
          </mxGeometry>
        </mxCell>
        <mxCell id="65lMB2ntxEYV6htzTdzf-172" style="edgeStyle=orthogonalEdgeStyle;rounded=0;orthogonalLoop=1;jettySize=auto;html=1;exitX=1;exitY=0.5;exitDx=0;exitDy=0;entryX=0;entryY=0.5;entryDx=0;entryDy=0;" edge="1" parent="1" source="65lMB2ntxEYV6htzTdzf-48" target="65lMB2ntxEYV6htzTdzf-96">
          <mxGeometry relative="1" as="geometry" />
        </mxCell>
        <mxCell id="65lMB2ntxEYV6htzTdzf-48" value="" style="ellipse;shape=startState;fillColor=#f8cecc;strokeColor=#b85450;" vertex="1" parent="1">
          <mxGeometry x="-614" y="480" width="30" height="30" as="geometry" />
        </mxCell>
        <mxCell id="65lMB2ntxEYV6htzTdzf-70" style="edgeStyle=orthogonalEdgeStyle;rounded=0;orthogonalLoop=1;jettySize=auto;html=1;exitX=1;exitY=0.75;exitDx=0;exitDy=0;entryX=0;entryY=0.75;entryDx=0;entryDy=0;" edge="1" parent="1" source="65lMB2ntxEYV6htzTdzf-49" target="65lMB2ntxEYV6htzTdzf-50">
          <mxGeometry relative="1" as="geometry" />
        </mxCell>
        <mxCell id="65lMB2ntxEYV6htzTdzf-49" value="Ввод Логина" style="" vertex="1" parent="1">
          <mxGeometry x="-118.5" y="355" width="110" height="50" as="geometry" />
        </mxCell>
        <mxCell id="65lMB2ntxEYV6htzTdzf-71" style="edgeStyle=orthogonalEdgeStyle;rounded=0;orthogonalLoop=1;jettySize=auto;html=1;exitX=1;exitY=0.75;exitDx=0;exitDy=0;entryX=0;entryY=0.75;entryDx=0;entryDy=0;" edge="1" parent="1" source="65lMB2ntxEYV6htzTdzf-50" target="65lMB2ntxEYV6htzTdzf-51">
          <mxGeometry relative="1" as="geometry" />
        </mxCell>
        <mxCell id="65lMB2ntxEYV6htzTdzf-73" style="edgeStyle=orthogonalEdgeStyle;rounded=0;orthogonalLoop=1;jettySize=auto;html=1;exitX=0;exitY=0.25;exitDx=0;exitDy=0;entryX=1;entryY=0.25;entryDx=0;entryDy=0;" edge="1" parent="1" source="65lMB2ntxEYV6htzTdzf-50" target="65lMB2ntxEYV6htzTdzf-49">
          <mxGeometry relative="1" as="geometry" />
        </mxCell>
        <mxCell id="65lMB2ntxEYV6htzTdzf-82" value="далее" style="edgeLabel;html=1;align=center;verticalAlign=middle;resizable=0;points=[];" vertex="1" connectable="0" parent="65lMB2ntxEYV6htzTdzf-73">
          <mxGeometry x="-0.061" relative="1" as="geometry">
            <mxPoint x="171" y="43" as="offset" />
          </mxGeometry>
        </mxCell>
        <mxCell id="65lMB2ntxEYV6htzTdzf-83" value="далее" style="edgeLabel;html=1;align=center;verticalAlign=middle;resizable=0;points=[];" vertex="1" connectable="0" parent="65lMB2ntxEYV6htzTdzf-73">
          <mxGeometry x="-0.061" relative="1" as="geometry">
            <mxPoint y="38" as="offset" />
          </mxGeometry>
        </mxCell>
        <mxCell id="65lMB2ntxEYV6htzTdzf-84" value="назад" style="edgeLabel;html=1;align=center;verticalAlign=middle;resizable=0;points=[];" vertex="1" connectable="0" parent="65lMB2ntxEYV6htzTdzf-73">
          <mxGeometry x="-0.2019" y="-3" relative="1" as="geometry">
            <mxPoint x="-4" y="-14" as="offset" />
          </mxGeometry>
        </mxCell>
        <mxCell id="65lMB2ntxEYV6htzTdzf-85" value="назад" style="edgeLabel;html=1;align=center;verticalAlign=middle;resizable=0;points=[];" vertex="1" connectable="0" parent="65lMB2ntxEYV6htzTdzf-73">
          <mxGeometry x="-0.2019" y="-3" relative="1" as="geometry">
            <mxPoint x="166" y="-14" as="offset" />
          </mxGeometry>
        </mxCell>
        <mxCell id="65lMB2ntxEYV6htzTdzf-50" value="Ввода Пароля" style="" vertex="1" parent="1">
          <mxGeometry x="62.5" y="355" width="110" height="50" as="geometry" />
        </mxCell>
        <mxCell id="65lMB2ntxEYV6htzTdzf-72" style="edgeStyle=orthogonalEdgeStyle;rounded=0;orthogonalLoop=1;jettySize=auto;html=1;exitX=0;exitY=0.25;exitDx=0;exitDy=0;entryX=1;entryY=0.25;entryDx=0;entryDy=0;" edge="1" parent="1" source="65lMB2ntxEYV6htzTdzf-51" target="65lMB2ntxEYV6htzTdzf-50">
          <mxGeometry relative="1" as="geometry" />
        </mxCell>
        <mxCell id="65lMB2ntxEYV6htzTdzf-51" value="Проверка Данных в БД" style="align=center;" vertex="1" parent="1">
          <mxGeometry x="230.5" y="355" width="135.5" height="50" as="geometry" />
        </mxCell>
        <mxCell id="65lMB2ntxEYV6htzTdzf-76" value="Ввод данных для авторизации&amp;nbsp;" style="html=1;whiteSpace=wrap;" vertex="1" parent="1">
          <mxGeometry x="-199.5" y="300" width="650" height="30" as="geometry" />
        </mxCell>
        <mxCell id="65lMB2ntxEYV6htzTdzf-89" style="edgeStyle=orthogonalEdgeStyle;rounded=0;orthogonalLoop=1;jettySize=auto;html=1;exitX=0;exitY=0.5;exitDx=0;exitDy=0;entryX=1;entryY=0.5;entryDx=0;entryDy=0;" edge="1" parent="1" source="65lMB2ntxEYV6htzTdzf-77" target="65lMB2ntxEYV6htzTdzf-88">
          <mxGeometry relative="1" as="geometry" />
        </mxCell>
        <mxCell id="65lMB2ntxEYV6htzTdzf-77" value="Авторизация" style="html=1;whiteSpace=wrap;" vertex="1" parent="1">
          <mxGeometry x="70" y="170" width="111" height="50" as="geometry" />
        </mxCell>
        <mxCell id="65lMB2ntxEYV6htzTdzf-86" value="" style="html=1;verticalAlign=bottom;endArrow=block;curved=0;rounded=0;exitX=1;exitY=0.5;exitDx=0;exitDy=0;entryX=1;entryY=0.5;entryDx=0;entryDy=0;" edge="1" parent="1" source="65lMB2ntxEYV6htzTdzf-68" target="65lMB2ntxEYV6htzTdzf-77">
          <mxGeometry width="80" relative="1" as="geometry">
            <mxPoint x="430" y="240" as="sourcePoint" />
            <mxPoint x="510" y="240" as="targetPoint" />
            <Array as="points">
              <mxPoint x="520" y="370" />
              <mxPoint x="520" y="200" />
            </Array>
          </mxGeometry>
        </mxCell>
        <mxCell id="65lMB2ntxEYV6htzTdzf-87" value="данные введены корректно" style="edgeLabel;html=1;align=center;verticalAlign=middle;resizable=0;points=[];" vertex="1" connectable="0" parent="65lMB2ntxEYV6htzTdzf-86">
          <mxGeometry x="-0.0305" y="-2" relative="1" as="geometry">
            <mxPoint x="-80" y="-17" as="offset" />
          </mxGeometry>
        </mxCell>
        <mxCell id="65lMB2ntxEYV6htzTdzf-174" style="edgeStyle=orthogonalEdgeStyle;rounded=0;orthogonalLoop=1;jettySize=auto;html=1;exitX=1;exitY=0.5;exitDx=0;exitDy=0;entryX=0.5;entryY=1;entryDx=0;entryDy=0;" edge="1" parent="1" source="65lMB2ntxEYV6htzTdzf-93" target="65lMB2ntxEYV6htzTdzf-96">
          <mxGeometry relative="1" as="geometry">
            <Array as="points">
              <mxPoint x="1180" y="635" />
              <mxPoint x="1180" y="780" />
              <mxPoint x="-499" y="780" />
            </Array>
          </mxGeometry>
        </mxCell>
        <mxCell id="65lMB2ntxEYV6htzTdzf-175" value="&lt;font style=&quot;font-size: 13px;&quot;&gt;конец регистрации&lt;/font&gt;" style="edgeLabel;html=1;align=center;verticalAlign=middle;resizable=0;points=[];" vertex="1" connectable="0" parent="65lMB2ntxEYV6htzTdzf-174">
          <mxGeometry x="-0.1567" y="-3" relative="1" as="geometry">
            <mxPoint y="-7" as="offset" />
          </mxGeometry>
        </mxCell>
        <mxCell id="65lMB2ntxEYV6htzTdzf-93" value="&lt;p style=&quot;margin:0px;margin-top:4px;text-align:center;&quot;&gt;&lt;b&gt;Class&lt;/b&gt;&lt;/p&gt;&lt;hr size=&quot;1&quot;/&gt;&lt;div style=&quot;height:2px;&quot;&gt;&lt;/div&gt;" style="verticalAlign=top;align=left;overflow=fill;fontSize=12;fontFamily=Helvetica;html=1;whiteSpace=wrap;" vertex="1" parent="1">
          <mxGeometry x="-199.5" y="540" width="1359.5" height="190" as="geometry" />
        </mxCell>
        <mxCell id="65lMB2ntxEYV6htzTdzf-88" value="" style="ellipse;html=1;shape=endState;fillColor=#000000;strokeColor=#ff0000;" vertex="1" parent="1">
          <mxGeometry x="-50" y="180" width="30" height="30" as="geometry" />
        </mxCell>
        <mxCell id="65lMB2ntxEYV6htzTdzf-94" value="Ввод данных для регистрации" style="html=1;whiteSpace=wrap;" vertex="1" parent="1">
          <mxGeometry x="-199.5" y="540" width="1359.5" height="30" as="geometry" />
        </mxCell>
        <mxCell id="65lMB2ntxEYV6htzTdzf-100" style="edgeStyle=orthogonalEdgeStyle;rounded=0;orthogonalLoop=1;jettySize=auto;html=1;exitX=1;exitY=0.75;exitDx=0;exitDy=0;entryX=0;entryY=0.5;entryDx=0;entryDy=0;" edge="1" parent="1" source="65lMB2ntxEYV6htzTdzf-96" target="65lMB2ntxEYV6htzTdzf-93">
          <mxGeometry relative="1" as="geometry" />
        </mxCell>
        <mxCell id="65lMB2ntxEYV6htzTdzf-173" value="начало регистрации" style="edgeLabel;html=1;align=center;verticalAlign=middle;resizable=0;points=[];" vertex="1" connectable="0" parent="65lMB2ntxEYV6htzTdzf-100">
          <mxGeometry x="-0.6995" y="1" relative="1" as="geometry">
            <mxPoint x="8" y="24" as="offset" />
          </mxGeometry>
        </mxCell>
        <mxCell id="65lMB2ntxEYV6htzTdzf-96" value="Выбор между регистрацией и авторизацией" style="html=1;whiteSpace=wrap;" vertex="1" parent="1">
          <mxGeometry x="-554" y="470" width="110" height="50" as="geometry" />
        </mxCell>
        <mxCell id="65lMB2ntxEYV6htzTdzf-99" style="edgeStyle=orthogonalEdgeStyle;rounded=0;orthogonalLoop=1;jettySize=auto;html=1;exitX=1;exitY=0.25;exitDx=0;exitDy=0;entryX=0;entryY=0.584;entryDx=0;entryDy=0;entryPerimeter=0;" edge="1" parent="1" source="65lMB2ntxEYV6htzTdzf-96" target="65lMB2ntxEYV6htzTdzf-68">
          <mxGeometry relative="1" as="geometry" />
        </mxCell>
        <mxCell id="65lMB2ntxEYV6htzTdzf-171" value="начало авторизации" style="edgeLabel;html=1;align=center;verticalAlign=middle;resizable=0;points=[];" vertex="1" connectable="0" parent="65lMB2ntxEYV6htzTdzf-99">
          <mxGeometry x="-0.5643" y="-1" relative="1" as="geometry">
            <mxPoint x="-13" y="-24" as="offset" />
          </mxGeometry>
        </mxCell>
        <mxCell id="65lMB2ntxEYV6htzTdzf-153" style="edgeStyle=orthogonalEdgeStyle;rounded=0;orthogonalLoop=1;jettySize=auto;html=1;exitX=1;exitY=0.5;exitDx=0;exitDy=0;entryX=0;entryY=0.5;entryDx=0;entryDy=0;" edge="1" parent="1" source="65lMB2ntxEYV6htzTdzf-101" target="65lMB2ntxEYV6htzTdzf-106">
          <mxGeometry relative="1" as="geometry" />
        </mxCell>
        <mxCell id="65lMB2ntxEYV6htzTdzf-154" value="начало проверки" style="edgeLabel;html=1;align=center;verticalAlign=middle;resizable=0;points=[];" vertex="1" connectable="0" parent="65lMB2ntxEYV6htzTdzf-153">
          <mxGeometry x="0.0381" y="2" relative="1" as="geometry">
            <mxPoint y="-13" as="offset" />
          </mxGeometry>
        </mxCell>
        <mxCell id="65lMB2ntxEYV6htzTdzf-101" value="Ввод Логина" style="" vertex="1" parent="1">
          <mxGeometry x="-149.5" y="600" width="110" height="50" as="geometry" />
        </mxCell>
        <mxCell id="65lMB2ntxEYV6htzTdzf-160" style="edgeStyle=orthogonalEdgeStyle;rounded=0;orthogonalLoop=1;jettySize=auto;html=1;exitX=1;exitY=0.5;exitDx=0;exitDy=0;entryX=0;entryY=0.5;entryDx=0;entryDy=0;" edge="1" parent="1" source="65lMB2ntxEYV6htzTdzf-102" target="65lMB2ntxEYV6htzTdzf-107">
          <mxGeometry relative="1" as="geometry" />
        </mxCell>
        <mxCell id="65lMB2ntxEYV6htzTdzf-161" value="начало проверки" style="edgeLabel;html=1;align=center;verticalAlign=middle;resizable=0;points=[];" vertex="1" connectable="0" parent="65lMB2ntxEYV6htzTdzf-160">
          <mxGeometry x="-0.0061" y="2" relative="1" as="geometry">
            <mxPoint y="-13" as="offset" />
          </mxGeometry>
        </mxCell>
        <mxCell id="65lMB2ntxEYV6htzTdzf-167" value="" style="edgeStyle=orthogonalEdgeStyle;rounded=0;orthogonalLoop=1;jettySize=auto;html=1;" edge="1" parent="1" source="65lMB2ntxEYV6htzTdzf-102" target="65lMB2ntxEYV6htzTdzf-107">
          <mxGeometry relative="1" as="geometry" />
        </mxCell>
        <mxCell id="65lMB2ntxEYV6htzTdzf-102" value="Ввода Пароля" style="" vertex="1" parent="1">
          <mxGeometry x="330.5" y="600" width="110" height="50" as="geometry" />
        </mxCell>
        <mxCell id="65lMB2ntxEYV6htzTdzf-168" style="edgeStyle=orthogonalEdgeStyle;rounded=0;orthogonalLoop=1;jettySize=auto;html=1;exitX=1;exitY=0.5;exitDx=0;exitDy=0;entryX=0;entryY=0.5;entryDx=0;entryDy=0;" edge="1" parent="1" source="65lMB2ntxEYV6htzTdzf-103" target="65lMB2ntxEYV6htzTdzf-166">
          <mxGeometry relative="1" as="geometry" />
        </mxCell>
        <mxCell id="65lMB2ntxEYV6htzTdzf-169" value="сохранение" style="edgeLabel;html=1;align=center;verticalAlign=middle;resizable=0;points=[];" vertex="1" connectable="0" parent="65lMB2ntxEYV6htzTdzf-168">
          <mxGeometry x="0.0762" y="2" relative="1" as="geometry">
            <mxPoint x="-3" y="-13" as="offset" />
          </mxGeometry>
        </mxCell>
        <mxCell id="65lMB2ntxEYV6htzTdzf-103" value="Ввод персональных данных" style="align=center;" vertex="1" parent="1">
          <mxGeometry x="760" y="600" width="170" height="50" as="geometry" />
        </mxCell>
        <mxCell id="65lMB2ntxEYV6htzTdzf-155" style="edgeStyle=orthogonalEdgeStyle;rounded=0;orthogonalLoop=1;jettySize=auto;html=1;exitX=1;exitY=0.5;exitDx=0;exitDy=0;entryX=0;entryY=0.5;entryDx=0;entryDy=0;" edge="1" parent="1" source="65lMB2ntxEYV6htzTdzf-106" target="65lMB2ntxEYV6htzTdzf-102">
          <mxGeometry relative="1" as="geometry" />
        </mxCell>
        <mxCell id="65lMB2ntxEYV6htzTdzf-156" value="логин корректен" style="edgeLabel;html=1;align=center;verticalAlign=middle;resizable=0;points=[];" vertex="1" connectable="0" parent="65lMB2ntxEYV6htzTdzf-155">
          <mxGeometry x="0.02" relative="1" as="geometry">
            <mxPoint y="-15" as="offset" />
          </mxGeometry>
        </mxCell>
        <mxCell id="65lMB2ntxEYV6htzTdzf-158" style="edgeStyle=orthogonalEdgeStyle;rounded=0;orthogonalLoop=1;jettySize=auto;html=1;exitX=0.5;exitY=1;exitDx=0;exitDy=0;entryX=0.5;entryY=1;entryDx=0;entryDy=0;" edge="1" parent="1" source="65lMB2ntxEYV6htzTdzf-106" target="65lMB2ntxEYV6htzTdzf-101">
          <mxGeometry relative="1" as="geometry" />
        </mxCell>
        <mxCell id="65lMB2ntxEYV6htzTdzf-159" value="логин некорректен" style="edgeLabel;html=1;align=center;verticalAlign=middle;resizable=0;points=[];" vertex="1" connectable="0" parent="65lMB2ntxEYV6htzTdzf-158">
          <mxGeometry x="0.0046" y="1" relative="1" as="geometry">
            <mxPoint y="9" as="offset" />
          </mxGeometry>
        </mxCell>
        <mxCell id="65lMB2ntxEYV6htzTdzf-106" value="Проверка корректности логина&amp;nbsp;" style="html=1;whiteSpace=wrap;" vertex="1" parent="1">
          <mxGeometry x="100.5" y="600" width="110" height="50" as="geometry" />
        </mxCell>
        <mxCell id="65lMB2ntxEYV6htzTdzf-162" style="edgeStyle=orthogonalEdgeStyle;rounded=0;orthogonalLoop=1;jettySize=auto;html=1;exitX=0.5;exitY=1;exitDx=0;exitDy=0;entryX=0.5;entryY=1;entryDx=0;entryDy=0;" edge="1" parent="1" source="65lMB2ntxEYV6htzTdzf-107" target="65lMB2ntxEYV6htzTdzf-102">
          <mxGeometry relative="1" as="geometry" />
        </mxCell>
        <mxCell id="65lMB2ntxEYV6htzTdzf-163" value="пароль некорректен" style="edgeLabel;html=1;align=center;verticalAlign=middle;resizable=0;points=[];" vertex="1" connectable="0" parent="65lMB2ntxEYV6htzTdzf-162">
          <mxGeometry x="-0.059" y="-1" relative="1" as="geometry">
            <mxPoint y="11" as="offset" />
          </mxGeometry>
        </mxCell>
        <mxCell id="65lMB2ntxEYV6htzTdzf-164" style="edgeStyle=orthogonalEdgeStyle;rounded=0;orthogonalLoop=1;jettySize=auto;html=1;exitX=1;exitY=0.5;exitDx=0;exitDy=0;entryX=0;entryY=0.5;entryDx=0;entryDy=0;" edge="1" parent="1" source="65lMB2ntxEYV6htzTdzf-107" target="65lMB2ntxEYV6htzTdzf-103">
          <mxGeometry relative="1" as="geometry" />
        </mxCell>
        <mxCell id="65lMB2ntxEYV6htzTdzf-165" value="пароль корректен" style="edgeLabel;html=1;align=center;verticalAlign=middle;resizable=0;points=[];" vertex="1" connectable="0" parent="65lMB2ntxEYV6htzTdzf-164">
          <mxGeometry x="0.019" relative="1" as="geometry">
            <mxPoint y="-15" as="offset" />
          </mxGeometry>
        </mxCell>
        <mxCell id="65lMB2ntxEYV6htzTdzf-107" value="Проверка корректности пароля" style="html=1;whiteSpace=wrap;" vertex="1" parent="1">
          <mxGeometry x="550.5" y="600" width="110" height="50" as="geometry" />
        </mxCell>
        <mxCell id="65lMB2ntxEYV6htzTdzf-166" value="Сохранение данных в БД" style="html=1;whiteSpace=wrap;" vertex="1" parent="1">
          <mxGeometry x="1010" y="600" width="110" height="50" as="geometry" />
        </mxCell>
      </root>
    </mxGraphModel>
  </diagram>
</mxfile>
